<mxfile host="www.draw.io" modified="2020-02-27T02:05:28.802Z" agent="Mozilla/5.0 (Macintosh; Intel Mac OS X 10_15_3) AppleWebKit/537.36 (KHTML, like Gecko) Chrome/80.0.3987.116 Safari/537.36" etag="4Lge91vrzGPKWbAkYOQz" version="12.7.8" type="github">
  <diagram name="Page-1" id="13e1069c-82ec-6db2-03f1-153e76fe0fe0">
    <mxGraphModel dx="2066" dy="1082" grid="1" gridSize="10" guides="1" tooltips="1" connect="1" arrows="1" fold="1" page="1" pageScale="1" pageWidth="1169" pageHeight="827" background="#ffffff" math="0" shadow="0">
      <root>
        <mxCell id="0" />
        <mxCell id="1" parent="0" />
        <mxCell id="QNTDgVG4sB3Ei2vzDemv-1" value="&lt;span&gt;:MapStateTabRoute&lt;br&gt;&lt;/span&gt;" style="shape=umlLifeline;perimeter=lifelinePerimeter;whiteSpace=wrap;html=1;container=1;collapsible=0;recursiveResize=0;outlineConnect=0;fontSize=5;strokeWidth=2;" parent="1" vertex="1">
          <mxGeometry x="50" y="100" width="130" height="560" as="geometry" />
        </mxCell>
        <mxCell id="QNTDgVG4sB3Ei2vzDemv-4" value="" style="html=1;points=[];perimeter=orthogonalPerimeter;strokeWidth=2;fontSize=10;" parent="QNTDgVG4sB3Ei2vzDemv-1" vertex="1">
          <mxGeometry x="60" y="90" width="10" height="380" as="geometry" />
        </mxCell>
        <mxCell id="QNTDgVG4sB3Ei2vzDemv-7" value="doSearch()" style="html=1;verticalAlign=bottom;endArrow=block;fontSize=10;entryX=-0.062;entryY=0.028;entryDx=0;entryDy=0;entryPerimeter=0;" parent="QNTDgVG4sB3Ei2vzDemv-1" target="QNTDgVG4sB3Ei2vzDemv-5" edge="1">
          <mxGeometry width="80" relative="1" as="geometry">
            <mxPoint x="70" y="100" as="sourcePoint" />
            <mxPoint x="150" y="100" as="targetPoint" />
          </mxGeometry>
        </mxCell>
        <mxCell id="QNTDgVG4sB3Ei2vzDemv-3" value="&lt;span&gt;:WalkRoutePresenter&lt;br&gt;&lt;/span&gt;" style="shape=umlLifeline;perimeter=lifelinePerimeter;whiteSpace=wrap;html=1;container=1;collapsible=0;recursiveResize=0;outlineConnect=0;fontSize=5;strokeWidth=2;" parent="1" vertex="1">
          <mxGeometry x="238" y="100" width="130" height="560" as="geometry" />
        </mxCell>
        <mxCell id="QNTDgVG4sB3Ei2vzDemv-5" value="" style="html=1;points=[];perimeter=orthogonalPerimeter;strokeWidth=2;fontSize=10;" parent="QNTDgVG4sB3Ei2vzDemv-3" vertex="1">
          <mxGeometry x="60" y="90" width="10" height="380" as="geometry" />
        </mxCell>
        <mxCell id="QNTDgVG4sB3Ei2vzDemv-8" value="" style="html=1;points=[];perimeter=orthogonalPerimeter;strokeWidth=2;fontSize=10;" parent="QNTDgVG4sB3Ei2vzDemv-3" vertex="1">
          <mxGeometry x="65" y="130" width="10" height="40" as="geometry" />
        </mxCell>
        <mxCell id="QNTDgVG4sB3Ei2vzDemv-9" value="doRealSearch()" style="edgeStyle=orthogonalEdgeStyle;html=1;align=left;spacingLeft=2;endArrow=block;rounded=0;entryX=1;entryY=0;fontSize=10;exitX=1.283;exitY=0.265;exitDx=0;exitDy=0;exitPerimeter=0;" parent="QNTDgVG4sB3Ei2vzDemv-3" source="QNTDgVG4sB3Ei2vzDemv-5" target="QNTDgVG4sB3Ei2vzDemv-8" edge="1">
          <mxGeometry relative="1" as="geometry">
            <mxPoint x="75" y="110" as="sourcePoint" />
            <Array as="points">
              <mxPoint x="100" y="111" />
              <mxPoint x="100" y="130" />
            </Array>
          </mxGeometry>
        </mxCell>
        <mxCell id="QNTDgVG4sB3Ei2vzDemv-14" value="searchNet()" style="html=1;verticalAlign=bottom;endArrow=block;fontSize=10;" parent="QNTDgVG4sB3Ei2vzDemv-3" target="QNTDgVG4sB3Ei2vzDemv-10" edge="1">
          <mxGeometry width="80" relative="1" as="geometry">
            <mxPoint x="76" y="160" as="sourcePoint" />
            <mxPoint x="156" y="160" as="targetPoint" />
          </mxGeometry>
        </mxCell>
        <mxCell id="QNTDgVG4sB3Ei2vzDemv-36" value="onRouteSearchFinished()" style="html=1;verticalAlign=bottom;endArrow=open;dashed=1;endSize=8;fontSize=10;" parent="QNTDgVG4sB3Ei2vzDemv-3" edge="1">
          <mxGeometry relative="1" as="geometry">
            <mxPoint x="252" y="440" as="sourcePoint" />
            <mxPoint x="72" y="440" as="targetPoint" />
          </mxGeometry>
        </mxCell>
        <mxCell id="QNTDgVG4sB3Ei2vzDemv-10" value="&lt;span&gt;:RouteSearchManager&lt;br&gt;&lt;/span&gt;" style="shape=umlLifeline;perimeter=lifelinePerimeter;whiteSpace=wrap;html=1;container=1;collapsible=0;recursiveResize=0;outlineConnect=0;fontSize=5;strokeWidth=2;" parent="1" vertex="1">
          <mxGeometry x="426" y="100" width="130" height="570" as="geometry" />
        </mxCell>
        <mxCell id="QNTDgVG4sB3Ei2vzDemv-15" value="&lt;span&gt;:RouteSearcher&lt;br&gt;&lt;/span&gt;" style="shape=umlLifeline;perimeter=lifelinePerimeter;whiteSpace=wrap;html=1;container=1;collapsible=0;recursiveResize=0;outlineConnect=0;fontSize=5;strokeWidth=2;" parent="1" vertex="1">
          <mxGeometry x="614" y="100" width="130" height="570" as="geometry" />
        </mxCell>
        <mxCell id="QNTDgVG4sB3Ei2vzDemv-18" value="" style="html=1;points=[];perimeter=orthogonalPerimeter;strokeWidth=2;fontSize=10;" parent="QNTDgVG4sB3Ei2vzDemv-15" vertex="1">
          <mxGeometry x="61" y="180" width="10" height="190" as="geometry" />
        </mxCell>
        <mxCell id="QNTDgVG4sB3Ei2vzDemv-19" value="doSearch()" style="edgeStyle=orthogonalEdgeStyle;html=1;align=left;spacingLeft=2;endArrow=block;rounded=0;entryX=1;entryY=0;fontSize=10;" parent="QNTDgVG4sB3Ei2vzDemv-15" edge="1">
          <mxGeometry relative="1" as="geometry">
            <mxPoint x="65.5" y="160" as="sourcePoint" />
            <Array as="points">
              <mxPoint x="90.5" y="160" />
            </Array>
            <mxPoint x="70.38888888888891" y="179.94444444444446" as="targetPoint" />
          </mxGeometry>
        </mxCell>
        <mxCell id="QNTDgVG4sB3Ei2vzDemv-20" value="" style="html=1;points=[];perimeter=orthogonalPerimeter;strokeWidth=2;fontSize=10;" parent="QNTDgVG4sB3Ei2vzDemv-15" vertex="1">
          <mxGeometry x="67" y="213" width="10" height="17" as="geometry" />
        </mxCell>
        <mxCell id="QNTDgVG4sB3Ei2vzDemv-21" value="cancel()" style="edgeStyle=orthogonalEdgeStyle;html=1;align=left;spacingLeft=2;endArrow=block;rounded=0;entryX=1;entryY=0;fontSize=10;" parent="QNTDgVG4sB3Ei2vzDemv-15" target="QNTDgVG4sB3Ei2vzDemv-20" edge="1">
          <mxGeometry relative="1" as="geometry">
            <mxPoint x="71.5" y="193" as="sourcePoint" />
            <Array as="points">
              <mxPoint x="96.5" y="193" />
            </Array>
          </mxGeometry>
        </mxCell>
        <mxCell id="QNTDgVG4sB3Ei2vzDemv-23" value="" style="html=1;points=[];perimeter=orthogonalPerimeter;strokeWidth=2;fontSize=10;" parent="QNTDgVG4sB3Ei2vzDemv-15" vertex="1">
          <mxGeometry x="67" y="260" width="10" height="40" as="geometry" />
        </mxCell>
        <mxCell id="QNTDgVG4sB3Ei2vzDemv-24" value="doWalkSearch()" style="edgeStyle=orthogonalEdgeStyle;html=1;align=left;spacingLeft=2;endArrow=block;rounded=0;entryX=1;entryY=0;fontSize=10;" parent="QNTDgVG4sB3Ei2vzDemv-15" target="QNTDgVG4sB3Ei2vzDemv-23" edge="1">
          <mxGeometry relative="1" as="geometry">
            <mxPoint x="71.5" y="240" as="sourcePoint" />
            <Array as="points">
              <mxPoint x="96.5" y="240" />
            </Array>
          </mxGeometry>
        </mxCell>
        <mxCell id="QNTDgVG4sB3Ei2vzDemv-25" value="searchRoutebyNet()" style="html=1;verticalAlign=bottom;endArrow=block;fontSize=10;" parent="QNTDgVG4sB3Ei2vzDemv-15" target="QNTDgVG4sB3Ei2vzDemv-22" edge="1">
          <mxGeometry width="80" relative="1" as="geometry">
            <mxPoint x="77" y="289.5" as="sourcePoint" />
            <mxPoint x="257" y="289.5" as="targetPoint" />
          </mxGeometry>
        </mxCell>
        <mxCell id="QNTDgVG4sB3Ei2vzDemv-17" value="searchNet()" style="html=1;verticalAlign=bottom;endArrow=block;fontSize=10;" parent="1" source="QNTDgVG4sB3Ei2vzDemv-10" target="QNTDgVG4sB3Ei2vzDemv-15" edge="1">
          <mxGeometry width="80" relative="1" as="geometry">
            <mxPoint x="481.5" y="260" as="sourcePoint" />
            <mxPoint x="649.5" y="260" as="targetPoint" />
            <Array as="points">
              <mxPoint x="550" y="260" />
            </Array>
          </mxGeometry>
        </mxCell>
        <mxCell id="QNTDgVG4sB3Ei2vzDemv-22" value="&lt;span&gt;:RouteSearchService&lt;br&gt;&lt;/span&gt;" style="shape=umlLifeline;perimeter=lifelinePerimeter;whiteSpace=wrap;html=1;container=1;collapsible=0;recursiveResize=0;outlineConnect=0;fontSize=5;strokeWidth=2;" parent="1" vertex="1">
          <mxGeometry x="802" y="100" width="130" height="570" as="geometry" />
        </mxCell>
        <mxCell id="QNTDgVG4sB3Ei2vzDemv-32" value="" style="html=1;points=[];perimeter=orthogonalPerimeter;strokeWidth=2;fontSize=10;" parent="QNTDgVG4sB3Ei2vzDemv-22" vertex="1">
          <mxGeometry x="60" y="360" width="10" height="100" as="geometry" />
        </mxCell>
        <mxCell id="QNTDgVG4sB3Ei2vzDemv-33" value="" style="html=1;points=[];perimeter=orthogonalPerimeter;strokeWidth=2;fontSize=10;" parent="QNTDgVG4sB3Ei2vzDemv-22" vertex="1">
          <mxGeometry x="65" y="420" width="10" height="20" as="geometry" />
        </mxCell>
        <mxCell id="QNTDgVG4sB3Ei2vzDemv-34" value="onCallback()" style="edgeStyle=orthogonalEdgeStyle;html=1;align=left;spacingLeft=2;endArrow=block;rounded=0;entryX=1;entryY=0;fontSize=10;" parent="QNTDgVG4sB3Ei2vzDemv-22" target="QNTDgVG4sB3Ei2vzDemv-33" edge="1">
          <mxGeometry relative="1" as="geometry">
            <mxPoint x="70" y="400" as="sourcePoint" />
            <Array as="points">
              <mxPoint x="95" y="400" />
            </Array>
          </mxGeometry>
        </mxCell>
        <mxCell id="QNTDgVG4sB3Ei2vzDemv-26" value=":IWalkRouteNetService" style="shape=umlLifeline;perimeter=lifelinePerimeter;whiteSpace=wrap;html=1;container=1;collapsible=0;recursiveResize=0;outlineConnect=0;fontSize=5;strokeWidth=2;" parent="1" vertex="1">
          <mxGeometry x="990" y="100" width="130" height="570" as="geometry" />
        </mxCell>
        <mxCell id="QNTDgVG4sB3Ei2vzDemv-30" value="" style="html=1;points=[];perimeter=orthogonalPerimeter;strokeWidth=2;fontSize=10;" parent="QNTDgVG4sB3Ei2vzDemv-26" vertex="1">
          <mxGeometry x="60" y="290" width="10" height="80" as="geometry" />
        </mxCell>
        <mxCell id="QNTDgVG4sB3Ei2vzDemv-27" value="getWalkRoute()" style="html=1;verticalAlign=bottom;endArrow=block;fontSize=10;entryX=-0.2;entryY=0.01;entryDx=0;entryDy=0;entryPerimeter=0;" parent="1" source="QNTDgVG4sB3Ei2vzDemv-22" target="QNTDgVG4sB3Ei2vzDemv-30" edge="1">
          <mxGeometry width="80" relative="1" as="geometry">
            <mxPoint x="860" y="390" as="sourcePoint" />
            <mxPoint x="1040" y="390" as="targetPoint" />
            <Array as="points">
              <mxPoint x="880" y="390" />
            </Array>
          </mxGeometry>
        </mxCell>
        <mxCell id="QNTDgVG4sB3Ei2vzDemv-31" value="ResultCallback.onSuccess()" style="html=1;verticalAlign=bottom;endArrow=open;dashed=1;endSize=8;fontSize=10;" parent="1" edge="1">
          <mxGeometry relative="1" as="geometry">
            <mxPoint x="1050" y="470" as="sourcePoint" />
            <mxPoint x="870" y="470" as="targetPoint" />
          </mxGeometry>
        </mxCell>
        <mxCell id="QNTDgVG4sB3Ei2vzDemv-35" value="RouteSearchCallback.onRouteSearchFinished()" style="html=1;verticalAlign=bottom;endArrow=open;dashed=1;endSize=8;fontSize=10;" parent="1" target="QNTDgVG4sB3Ei2vzDemv-10" edge="1">
          <mxGeometry relative="1" as="geometry">
            <mxPoint x="870" y="540" as="sourcePoint" />
            <mxPoint x="790" y="540" as="targetPoint" />
          </mxGeometry>
        </mxCell>
      </root>
    </mxGraphModel>
  </diagram>
</mxfile>
